<svg viewBox="0 0 1491.7333984375 400" xmlns="http://www.w3.org/2000/svg"><g><g><g><g><g><line x1="51.53200149536133" y1="377.8779993057251" x2="46.53200149536133" y2="377.8779993057251" style="visibility: inherit;" fill="rgb(0, 0, 0)" stroke="rgb(204, 204, 204)" stroke-width="1px"></line><line x1="51.53200149536133" y1="343.52545391429555" x2="46.53200149536133" y2="343.52545391429555" style="visibility: inherit;" fill="rgb(0, 0, 0)" stroke="rgb(204, 204, 204)" stroke-width="1px"></line><line x1="51.53200149536133" y1="309.17290852286595" x2="46.53200149536133" y2="309.17290852286595" style="visibility: inherit;" fill="rgb(0, 0, 0)" stroke="rgb(204, 204, 204)" stroke-width="1px"></line><line x1="51.53200149536133" y1="274.82036313143647" x2="46.53200149536133" y2="274.82036313143647" style="visibility: inherit;" fill="rgb(0, 0, 0)" stroke="rgb(204, 204, 204)" stroke-width="1px"></line><line x1="51.53200149536133" y1="240.46781774000692" x2="46.53200149536133" y2="240.46781774000692" style="visibility: inherit;" fill="rgb(0, 0, 0)" stroke="rgb(204, 204, 204)" stroke-width="1px"></line><line x1="51.53200149536133" y1="206.11527234857732" x2="46.53200149536133" y2="206.11527234857732" style="visibility: inherit;" fill="rgb(0, 0, 0)" stroke="rgb(204, 204, 204)" stroke-width="1px"></line><line x1="51.53200149536133" y1="171.76272695714778" x2="46.53200149536133" y2="171.76272695714778" style="visibility: inherit;" fill="rgb(0, 0, 0)" stroke="rgb(204, 204, 204)" stroke-width="1px"></line><line x1="51.53200149536133" y1="137.41018156571826" x2="46.53200149536133" y2="137.41018156571826" style="visibility: inherit;" fill="rgb(0, 0, 0)" stroke="rgb(204, 204, 204)" stroke-width="1px"></line><line x1="51.53200149536133" y1="103.05763617428866" x2="46.53200149536133" y2="103.05763617428866" style="visibility: inherit;" fill="rgb(0, 0, 0)" stroke="rgb(204, 204, 204)" stroke-width="1px"></line><line x1="51.53200149536133" y1="68.70509078285913" x2="46.53200149536133" y2="68.70509078285913" style="visibility: inherit;" fill="rgb(0, 0, 0)" stroke="rgb(204, 204, 204)" stroke-width="1px"></line><line x1="51.53200149536133" y1="34.352545391429565" x2="46.53200149536133" y2="34.352545391429565" style="visibility: inherit;" fill="rgb(0, 0, 0)" stroke="rgb(204, 204, 204)" stroke-width="1px"></line><line x1="51.53200149536133" y1="0" x2="46.53200149536133" y2="0" style="visibility: inherit;" fill="rgb(0, 0, 0)" stroke="rgb(204, 204, 204)" stroke-width="1px"></line></g><g transform="translate(41.53200149536133, 0)"><text style="text-anchor: end; visibility: hidden; font-family: Roboto, sans-serif; font-size: 12px; font-weight: 200;" x="0" y="377.8779993057251" dx="0em" dy="0.3em" fill="rgb(50, 49, 63)" stroke="none" stroke-width="1px">0.02</text><text style="text-anchor: end; visibility: inherit; font-family: Roboto, sans-serif; font-size: 12px; font-weight: 200;" x="0" y="343.52545391429555" dx="0em" dy="0.3em" fill="rgb(50, 49, 63)" stroke="none" stroke-width="1px">0.03</text><text style="text-anchor: end; visibility: inherit; font-family: Roboto, sans-serif; font-size: 12px; font-weight: 200;" x="0" y="309.17290852286595" dx="0em" dy="0.3em" fill="rgb(50, 49, 63)" stroke="none" stroke-width="1px">0.04</text><text style="text-anchor: end; visibility: inherit; font-family: Roboto, sans-serif; font-size: 12px; font-weight: 200;" x="0" y="274.82036313143647" dx="0em" dy="0.3em" fill="rgb(50, 49, 63)" stroke="none" stroke-width="1px">0.05</text><text style="text-anchor: end; visibility: inherit; font-family: Roboto, sans-serif; font-size: 12px; font-weight: 200;" x="0" y="240.46781774000692" dx="0em" dy="0.3em" fill="rgb(50, 49, 63)" stroke="none" stroke-width="1px">0.06</text><text style="text-anchor: end; visibility: inherit; font-family: Roboto, sans-serif; font-size: 12px; font-weight: 200;" x="0" y="206.11527234857732" dx="0em" dy="0.3em" fill="rgb(50, 49, 63)" stroke="none" stroke-width="1px">0.07</text><text style="text-anchor: end; visibility: inherit; font-family: Roboto, sans-serif; font-size: 12px; font-weight: 200;" x="0" y="171.76272695714778" dx="0em" dy="0.3em" fill="rgb(50, 49, 63)" stroke="none" stroke-width="1px">0.08</text><text style="text-anchor: end; visibility: inherit; font-family: Roboto, sans-serif; font-size: 12px; font-weight: 200;" x="0" y="137.41018156571826" dx="0em" dy="0.3em" fill="rgb(50, 49, 63)" stroke="none" stroke-width="1px">0.09</text><text style="text-anchor: end; visibility: inherit; font-family: Roboto, sans-serif; font-size: 12px; font-weight: 200;" x="0" y="103.05763617428866" dx="0em" dy="0.3em" fill="rgb(50, 49, 63)" stroke="none" stroke-width="1px">0.1</text><text style="text-anchor: end; visibility: inherit; font-family: Roboto, sans-serif; font-size: 12px; font-weight: 200;" x="0" y="68.70509078285913" dx="0em" dy="0.3em" fill="rgb(50, 49, 63)" stroke="none" stroke-width="1px">0.11</text><text style="text-anchor: end; visibility: inherit; font-family: Roboto, sans-serif; font-size: 12px; font-weight: 200;" x="0" y="34.352545391429565" dx="0em" dy="0.3em" fill="rgb(50, 49, 63)" stroke="none" stroke-width="1px">0.12</text><text style="text-anchor: end; visibility: hidden; font-family: Roboto, sans-serif; font-size: 12px; font-weight: 200;" x="0" y="0" dx="0em" dy="0.3em" fill="rgb(50, 49, 63)" stroke="none" stroke-width="1px">0.13</text></g><line x1="51.53200149536133" y1="0" x2="51.53200149536133" y2="377.8779993057251" fill="rgb(0, 0, 0)" stroke="rgb(204, 204, 204)" stroke-width="1px"></line></g></g><g transform="translate(51, 0)" clip-path="url(#clip_0)"><clipPath id="clip_0"><rect width="1440" height="377"></rect></clipPath><g><g><g><line x1="0" y1="0" x2="0" y2="377.8779993057251" fill="rgb(0, 0, 0)" stroke="rgb(60, 60, 60)" stroke-width="1px" opacity="0.25"></line><line x1="160.02199983384872" y1="0" x2="160.02199983384872" y2="377.8779993057251" fill="rgb(0, 0, 0)" stroke="rgb(60, 60, 60)" stroke-width="1px" opacity="0.25"></line><line x1="320.04399966769745" y1="0" x2="320.04399966769745" y2="377.8779993057251" fill="rgb(0, 0, 0)" stroke="rgb(60, 60, 60)" stroke-width="1px" opacity="0.25"></line><line x1="480.06599950154623" y1="0" x2="480.06599950154623" y2="377.8779993057251" fill="rgb(0, 0, 0)" stroke="rgb(60, 60, 60)" stroke-width="1px" opacity="0.25"></line><line x1="640.0879993353949" y1="0" x2="640.0879993353949" y2="377.8779993057251" fill="rgb(0, 0, 0)" stroke="rgb(60, 60, 60)" stroke-width="1px" opacity="0.25"></line><line x1="800.1099991692438" y1="0" x2="800.1099991692438" y2="377.8779993057251" fill="rgb(0, 0, 0)" stroke="rgb(60, 60, 60)" stroke-width="1px" opacity="0.25"></line><line x1="960.1319990030925" y1="0" x2="960.1319990030925" y2="377.8779993057251" fill="rgb(0, 0, 0)" stroke="rgb(60, 60, 60)" stroke-width="1px" opacity="0.25"></line><line x1="1120.1539988369411" y1="0" x2="1120.1539988369411" y2="377.8779993057251" fill="rgb(0, 0, 0)" stroke="rgb(60, 60, 60)" stroke-width="1px" opacity="0.25"></line><line x1="1280.1759986707898" y1="0" x2="1280.1759986707898" y2="377.8779993057251" fill="rgb(0, 0, 0)" stroke="rgb(60, 60, 60)" stroke-width="1px" opacity="0.25"></line><line x1="1440.1979985046387" y1="0" x2="1440.1979985046387" y2="377.8779993057251" fill="rgb(0, 0, 0)" stroke="rgb(60, 60, 60)" stroke-width="1px" opacity="0.25"></line></g><g><line x1="0" y1="377.8779993057251" x2="1440.1979985046387" y2="377.8779993057251" fill="rgb(0, 0, 0)" stroke="rgb(60, 60, 60)" stroke-width="1px" opacity="0.25"></line><line x1="0" y1="343.52545391429555" x2="1440.1979985046387" y2="343.52545391429555" fill="rgb(0, 0, 0)" stroke="rgb(60, 60, 60)" stroke-width="1px" opacity="0.25"></line><line x1="0" y1="309.17290852286595" x2="1440.1979985046387" y2="309.17290852286595" fill="rgb(0, 0, 0)" stroke="rgb(60, 60, 60)" stroke-width="1px" opacity="0.25"></line><line x1="0" y1="274.82036313143647" x2="1440.1979985046387" y2="274.82036313143647" fill="rgb(0, 0, 0)" stroke="rgb(60, 60, 60)" stroke-width="1px" opacity="0.25"></line><line x1="0" y1="240.46781774000692" x2="1440.1979985046387" y2="240.46781774000692" fill="rgb(0, 0, 0)" stroke="rgb(60, 60, 60)" stroke-width="1px" opacity="0.25"></line><line x1="0" y1="206.11527234857732" x2="1440.1979985046387" y2="206.11527234857732" fill="rgb(0, 0, 0)" stroke="rgb(60, 60, 60)" stroke-width="1px" opacity="0.25"></line><line x1="0" y1="171.76272695714778" x2="1440.1979985046387" y2="171.76272695714778" fill="rgb(0, 0, 0)" stroke="rgb(60, 60, 60)" stroke-width="1px" opacity="0.25"></line><line x1="0" y1="137.41018156571826" x2="1440.1979985046387" y2="137.41018156571826" fill="rgb(0, 0, 0)" stroke="rgb(60, 60, 60)" stroke-width="1px" opacity="0.25"></line><line x1="0" y1="103.05763617428866" x2="1440.1979985046387" y2="103.05763617428866" fill="rgb(0, 0, 0)" stroke="rgb(60, 60, 60)" stroke-width="1px" opacity="0.25"></line><line x1="0" y1="68.70509078285913" x2="1440.1979985046387" y2="68.70509078285913" fill="rgb(0, 0, 0)" stroke="rgb(60, 60, 60)" stroke-width="1px" opacity="0.25"></line><line x1="0" y1="34.352545391429565" x2="1440.1979985046387" y2="34.352545391429565" fill="rgb(0, 0, 0)" stroke="rgb(60, 60, 60)" stroke-width="1px" opacity="0.25"></line><line x1="0" y1="0" x2="1440.1979985046387" y2="0" fill="rgb(0, 0, 0)" stroke="rgb(60, 60, 60)" stroke-width="1px" opacity="0.25"></line></g></g></g><g><g><line x1="0" y1="446.58309008858424" x2="1440.1979985046387" y2="446.58309008858424" fill="rgb(0, 0, 0)" stroke="rgb(153, 153, 153)" stroke-width="1.5px"></line></g></g><g><g><line x1="160.02199983384872" y1="0" x2="160.02199983384872" y2="377.8779993057251" fill="rgb(0, 0, 0)" stroke="rgb(153, 153, 153)" stroke-width="1.5px"></line></g></g><g><g><g><g><g><path style="fill: none;" stroke="rgb(0, 119, 187)" stroke-width="2px" d="M224.03079976738823,-133.0976395979211L256.035199734158,40.5070723765199L288.03959970092774,135.62304319202502L320.04399966769745,187.71752980607218L352.0483996344672,220.5882920850866L384.052799601237,236.45263036704756L416.0571995680067,253.29924661400497L448.06159953477646,261.044744276201L480.06599950154623,255.2873521488688L512.070399468316,264.21640510823886L544.0747994350858,271.1498526318886L576.0791994018555,276.99685401764464L608.0835993686252,282.2721572153748L640.0879993353949,284.1258421511194L672.0923993021647,285.0220009381999L704.0967992689344,282.93447412280415L736.1011992357041,282.88048736020147L768.105599202474,283.2774120149573L800.1099991692438,283.0786525356586L832.1143991360134,281.9814718496521L864.1187991027832,279.9948412834409L896.1231990695529,278.3432217712676L928.1275990363227,277.1629002626024L960.1319990030925,275.9493271032839L992.1363989698622,274.98436731659643L1024.140798936632,273.513771502773L1056.1451989034017,272.5609422824676L1088.1495988701715,271.9271370058414L1120.1539988369411,271.4104293569739L1152.158398803711,271.3790383314601L1184.1627987704805,270.87937253458625L1216.1671987372504,270.8641445343213L1248.1715987040202,271.20668834313943L1280.1759986707898,270.9781755823186L1312.1803986375596,270.94118904389364" fill="none"></path></g><g><path style="fill: none;" stroke="rgb(255, 112, 67)" stroke-width="2px" d="M160.02199983384872,-21.39352009091615L192.0263998006185,110.36956243195375L224.03079976738823,173.68013132771299L256.035199734158,209.35242611841173L288.03959970092774,231.96331044231252L320.04399966769745,247.07345007931616L352.0483996344672,259.66308807097766L384.052799601237,268.41159401548117L416.0571995680067,275.2339994845333L448.06159953477646,281.0065141630427L480.06599950154623,285.61079438082623L512.070399468316,290.0230807893984L544.0747994350858,296.8023716645387L576.0791994018555,302.6316595406177L608.0835993686252,307.25052254820196L640.0879993353949,311.24928317794576L672.0923993021647,314.87704945947223L704.0967992689344,317.6971789381719L736.1011992357041,322.23692705990845L768.105599202474,325.8913257146034L800.1099991692438,328.9551707951397L832.1143991360134,332.2223307666572L864.1187991027832,334.8849933834563L896.1231990695529,336.9578901440396L928.1275990363227,339.0635290129739L960.1319990030925,340.29693200858026L992.1363989698622,341.38124632536955L1024.140798936632,342.4772400965533L1056.1451989034017,343.1866292627521L1088.1495988701715,343.86330000672655L1120.1539988369411,344.37772894863696L1152.158398803711,344.6149337056627L1184.1627987704805,345.07759652806715L1216.1671987372504,345.2940383708552L1248.1715987040202,345.27482748457044L1280.1759986707898,345.35164085669453L1312.1803986375596,345.6473508534097" fill="none"></path></g></g></g></g><g opacity="0.2"><g><g><g><path style="fill: none;" stroke="rgb(0, 119, 187)" stroke-width="2px" d="M192.0263998006185,-24.39771665119804L224.03079976738823,92.82699241813708L256.035199734158,244.66621365846257L288.03959970092774,259.8064546887485L320.04399966769745,259.78295880848043L352.0483996344672,267.5940080762736L384.052799601237,259.5829878797942L416.0571995680067,278.14473329152736L448.06159953477646,272.5459056132826L480.06599950154623,246.7034830807212L512.070399468316,277.56139303539607L544.0747994350858,281.52738500821766L576.0791994018555,285.7559012118771L608.0835993686252,290.17891109108837L640.0879993353949,286.9050621925019L672.0923993021647,286.36585989445575L704.0967992689344,279.8037139225428L736.1011992357041,282.7995154406374L768.105599202474,283.87276271660534L800.1099991692438,282.78052421715273L832.1143991360134,280.33573692384033L864.1187991027832,277.014934656679L896.1231990695529,275.86581206801543L928.1275990363227,275.3924263888247L960.1319990030925,274.12897253964127L992.1363989698622,273.53693010563296L1024.140798936632,271.3078800397488L1056.1451989034017,271.1316993296998L1088.1495988701715,270.9764294411967L1120.1539988369411,270.6353680550186L1152.158398803711,271.3319517994351L1184.1627987704805,270.12987389892567L1216.1671987372504,270.84130253501473L1248.1715987040202,271.7205040416451L1280.1759986707898,270.6354064469798L1312.1803986375596,270.8857092368285" fill="none"></path></g><g><path style="fill: none;" stroke="rgb(255, 112, 67)" stroke-width="2px" d="M160.02199983384872,-21.39352009091615L192.0263998006185,189.4274119456757L224.03079976738823,234.45827746764186L256.035199734158,251.30304479227323L288.03959970092774,261.4840810155975L320.04399966769745,267.97621284756156L352.0483996344672,277.66647183326137L384.052799601237,281.1669996682245L416.0571995680067,285.2957223673468L448.06159953477646,289.5780257086786L480.06599950154623,292.4754542248013L512.070399468316,296.6174989344678L544.0747994350858,306.94917241630776L576.0791994018555,311.364171172944L608.0835993686252,314.17338775949844L640.0879993353949,317.2446038867539L672.0923993021647,320.31716373265215L704.0967992689344,321.9266571256521L736.1011992357041,329.0458576575796L768.105599202474,331.3725896701336L800.1099991692438,333.55077038739836L832.1143991360134,337.122963216643L864.1187991027832,338.8789347390262L896.1231990695529,340.06721072947624L928.1275990363227,342.2219723503954L960.1319990030925,342.1470312420896L992.1363989698622,343.0077150260904L1024.140798936632,344.1212290707203L1056.1451989034017,344.2507123586025L1088.1495988701715,344.87830574870264L1120.1539988369411,345.14937219091235L1152.158398803711,344.9707407940054L1184.1627987704805,345.7715907064414L1216.1671987372504,345.61870111953397L1248.1715987040202,345.246011155969L1280.1759986707898,345.4668609128999L1312.1803986375596,346.0909158439074" fill="none"></path></g></g></g></g></g></g><g transform="translate(51, 377)" clip-path="url(#clip_1)"><clipPath id="clip_1"><rect width="1440" height="22"></rect></clipPath><g><g><line x1="0" y1="0" x2="0" y2="5" style="visibility: inherit;" fill="rgb(0, 0, 0)" stroke="rgb(204, 204, 204)" stroke-width="1px"></line><line x1="160.02199983384872" y1="0" x2="160.02199983384872" y2="5" style="visibility: inherit;" fill="rgb(0, 0, 0)" stroke="rgb(204, 204, 204)" stroke-width="1px"></line><line x1="320.04399966769745" y1="0" x2="320.04399966769745" y2="5" style="visibility: inherit;" fill="rgb(0, 0, 0)" stroke="rgb(204, 204, 204)" stroke-width="1px"></line><line x1="480.06599950154623" y1="0" x2="480.06599950154623" y2="5" style="visibility: inherit;" fill="rgb(0, 0, 0)" stroke="rgb(204, 204, 204)" stroke-width="1px"></line><line x1="640.0879993353949" y1="0" x2="640.0879993353949" y2="5" style="visibility: inherit;" fill="rgb(0, 0, 0)" stroke="rgb(204, 204, 204)" stroke-width="1px"></line><line x1="800.1099991692438" y1="0" x2="800.1099991692438" y2="5" style="visibility: inherit;" fill="rgb(0, 0, 0)" stroke="rgb(204, 204, 204)" stroke-width="1px"></line><line x1="960.1319990030925" y1="0" x2="960.1319990030925" y2="5" style="visibility: inherit;" fill="rgb(0, 0, 0)" stroke="rgb(204, 204, 204)" stroke-width="1px"></line><line x1="1120.1539988369411" y1="0" x2="1120.1539988369411" y2="5" style="visibility: inherit;" fill="rgb(0, 0, 0)" stroke="rgb(204, 204, 204)" stroke-width="1px"></line><line x1="1280.1759986707898" y1="0" x2="1280.1759986707898" y2="5" style="visibility: inherit;" fill="rgb(0, 0, 0)" stroke="rgb(204, 204, 204)" stroke-width="1px"></line><line x1="1440.1979985046387" y1="0" x2="1440.1979985046387" y2="5" style="visibility: inherit;" fill="rgb(0, 0, 0)" stroke="rgb(204, 204, 204)" stroke-width="1px"></line></g><g transform="translate(0, 8)"><text style="text-anchor: middle; visibility: hidden; font-family: Roboto, sans-serif; font-size: 12px; font-weight: 200;" x="0" y="0" dx="0em" dy="0.95em" fill="rgb(50, 49, 63)" stroke="none" stroke-width="1px">-5</text><text style="text-anchor: middle; visibility: inherit; font-family: Roboto, sans-serif; font-size: 12px; font-weight: 200;" x="160.02199983384872" y="0" dx="0em" dy="0.95em" fill="rgb(50, 49, 63)" stroke="none" stroke-width="1px">0</text><text style="text-anchor: middle; visibility: inherit; font-family: Roboto, sans-serif; font-size: 12px; font-weight: 200;" x="320.04399966769745" y="0" dx="0em" dy="0.95em" fill="rgb(50, 49, 63)" stroke="none" stroke-width="1px">5</text><text style="text-anchor: middle; visibility: inherit; font-family: Roboto, sans-serif; font-size: 12px; font-weight: 200;" x="480.06599950154623" y="0" dx="0em" dy="0.95em" fill="rgb(50, 49, 63)" stroke="none" stroke-width="1px">10</text><text style="text-anchor: middle; visibility: inherit; font-family: Roboto, sans-serif; font-size: 12px; font-weight: 200;" x="640.0879993353949" y="0" dx="0em" dy="0.95em" fill="rgb(50, 49, 63)" stroke="none" stroke-width="1px">15</text><text style="text-anchor: middle; visibility: inherit; font-family: Roboto, sans-serif; font-size: 12px; font-weight: 200;" x="800.1099991692438" y="0" dx="0em" dy="0.95em" fill="rgb(50, 49, 63)" stroke="none" stroke-width="1px">20</text><text style="text-anchor: middle; visibility: inherit; font-family: Roboto, sans-serif; font-size: 12px; font-weight: 200;" x="960.1319990030925" y="0" dx="0em" dy="0.95em" fill="rgb(50, 49, 63)" stroke="none" stroke-width="1px">25</text><text style="text-anchor: middle; visibility: inherit; font-family: Roboto, sans-serif; font-size: 12px; font-weight: 200;" x="1120.1539988369411" y="0" dx="0em" dy="0.95em" fill="rgb(50, 49, 63)" stroke="none" stroke-width="1px">30</text><text style="text-anchor: middle; visibility: inherit; font-family: Roboto, sans-serif; font-size: 12px; font-weight: 200;" x="1280.1759986707898" y="0" dx="0em" dy="0.95em" fill="rgb(50, 49, 63)" stroke="none" stroke-width="1px">35</text><text style="text-anchor: middle; visibility: hidden; font-family: Roboto, sans-serif; font-size: 12px; font-weight: 200;" x="1440.1979985046387" y="0" dx="0em" dy="0.95em" fill="rgb(50, 49, 63)" stroke="none" stroke-width="1px">40</text></g><line x1="0" y1="0" x2="1440.1979985046387" y2="0" fill="rgb(0, 0, 0)" stroke="rgb(204, 204, 204)" stroke-width="1px"></line></g></g></g></g></svg>