<svg viewBox="0 0 1491.7333984375 400" xmlns="http://www.w3.org/2000/svg"><g><g><g><g><g><line x1="51.53200149536133" y1="377.8779993057251" x2="46.53200149536133" y2="377.8779993057251" style="visibility: inherit;" fill="rgb(0, 0, 0)" stroke="rgb(204, 204, 204)" stroke-width="1px"></line><line x1="51.53200149536133" y1="343.52545391429555" x2="46.53200149536133" y2="343.52545391429555" style="visibility: inherit;" fill="rgb(0, 0, 0)" stroke="rgb(204, 204, 204)" stroke-width="1px"></line><line x1="51.53200149536133" y1="309.17290852286595" x2="46.53200149536133" y2="309.17290852286595" style="visibility: inherit;" fill="rgb(0, 0, 0)" stroke="rgb(204, 204, 204)" stroke-width="1px"></line><line x1="51.53200149536133" y1="274.82036313143647" x2="46.53200149536133" y2="274.82036313143647" style="visibility: inherit;" fill="rgb(0, 0, 0)" stroke="rgb(204, 204, 204)" stroke-width="1px"></line><line x1="51.53200149536133" y1="240.46781774000686" x2="46.53200149536133" y2="240.46781774000686" style="visibility: inherit;" fill="rgb(0, 0, 0)" stroke="rgb(204, 204, 204)" stroke-width="1px"></line><line x1="51.53200149536133" y1="206.11527234857732" x2="46.53200149536133" y2="206.11527234857732" style="visibility: inherit;" fill="rgb(0, 0, 0)" stroke="rgb(204, 204, 204)" stroke-width="1px"></line><line x1="51.53200149536133" y1="171.76272695714778" x2="46.53200149536133" y2="171.76272695714778" style="visibility: inherit;" fill="rgb(0, 0, 0)" stroke="rgb(204, 204, 204)" stroke-width="1px"></line><line x1="51.53200149536133" y1="137.41018156571823" x2="46.53200149536133" y2="137.41018156571823" style="visibility: inherit;" fill="rgb(0, 0, 0)" stroke="rgb(204, 204, 204)" stroke-width="1px"></line><line x1="51.53200149536133" y1="103.0576361742887" x2="46.53200149536133" y2="103.0576361742887" style="visibility: inherit;" fill="rgb(0, 0, 0)" stroke="rgb(204, 204, 204)" stroke-width="1px"></line><line x1="51.53200149536133" y1="68.70509078285913" x2="46.53200149536133" y2="68.70509078285913" style="visibility: inherit;" fill="rgb(0, 0, 0)" stroke="rgb(204, 204, 204)" stroke-width="1px"></line><line x1="51.53200149536133" y1="34.352545391429565" x2="46.53200149536133" y2="34.352545391429565" style="visibility: inherit;" fill="rgb(0, 0, 0)" stroke="rgb(204, 204, 204)" stroke-width="1px"></line><line x1="51.53200149536133" y1="0" x2="46.53200149536133" y2="0" style="visibility: inherit;" fill="rgb(0, 0, 0)" stroke="rgb(204, 204, 204)" stroke-width="1px"></line></g><g transform="translate(41.53200149536133, 0)"><text style="text-anchor: end; visibility: hidden; font-family: Roboto, sans-serif; font-size: 12px; font-weight: 200;" x="0" y="377.8779993057251" dx="0em" dy="0.3em" fill="rgb(50, 49, 63)" stroke="none" stroke-width="1px">0.3</text><text style="text-anchor: end; visibility: inherit; font-family: Roboto, sans-serif; font-size: 12px; font-weight: 200;" x="0" y="343.52545391429555" dx="0em" dy="0.3em" fill="rgb(50, 49, 63)" stroke="none" stroke-width="1px">0.35</text><text style="text-anchor: end; visibility: inherit; font-family: Roboto, sans-serif; font-size: 12px; font-weight: 200;" x="0" y="309.17290852286595" dx="0em" dy="0.3em" fill="rgb(50, 49, 63)" stroke="none" stroke-width="1px">0.4</text><text style="text-anchor: end; visibility: inherit; font-family: Roboto, sans-serif; font-size: 12px; font-weight: 200;" x="0" y="274.82036313143647" dx="0em" dy="0.3em" fill="rgb(50, 49, 63)" stroke="none" stroke-width="1px">0.45</text><text style="text-anchor: end; visibility: inherit; font-family: Roboto, sans-serif; font-size: 12px; font-weight: 200;" x="0" y="240.46781774000686" dx="0em" dy="0.3em" fill="rgb(50, 49, 63)" stroke="none" stroke-width="1px">0.5</text><text style="text-anchor: end; visibility: inherit; font-family: Roboto, sans-serif; font-size: 12px; font-weight: 200;" x="0" y="206.11527234857732" dx="0em" dy="0.3em" fill="rgb(50, 49, 63)" stroke="none" stroke-width="1px">0.55</text><text style="text-anchor: end; visibility: inherit; font-family: Roboto, sans-serif; font-size: 12px; font-weight: 200;" x="0" y="171.76272695714778" dx="0em" dy="0.3em" fill="rgb(50, 49, 63)" stroke="none" stroke-width="1px">0.6</text><text style="text-anchor: end; visibility: inherit; font-family: Roboto, sans-serif; font-size: 12px; font-weight: 200;" x="0" y="137.41018156571823" dx="0em" dy="0.3em" fill="rgb(50, 49, 63)" stroke="none" stroke-width="1px">0.65</text><text style="text-anchor: end; visibility: inherit; font-family: Roboto, sans-serif; font-size: 12px; font-weight: 200;" x="0" y="103.0576361742887" dx="0em" dy="0.3em" fill="rgb(50, 49, 63)" stroke="none" stroke-width="1px">0.7</text><text style="text-anchor: end; visibility: inherit; font-family: Roboto, sans-serif; font-size: 12px; font-weight: 200;" x="0" y="68.70509078285913" dx="0em" dy="0.3em" fill="rgb(50, 49, 63)" stroke="none" stroke-width="1px">0.75</text><text style="text-anchor: end; visibility: inherit; font-family: Roboto, sans-serif; font-size: 12px; font-weight: 200;" x="0" y="34.352545391429565" dx="0em" dy="0.3em" fill="rgb(50, 49, 63)" stroke="none" stroke-width="1px">0.8</text><text style="text-anchor: end; visibility: hidden; font-family: Roboto, sans-serif; font-size: 12px; font-weight: 200;" x="0" y="0" dx="0em" dy="0.3em" fill="rgb(50, 49, 63)" stroke="none" stroke-width="1px">0.85</text></g><line x1="51.53200149536133" y1="0" x2="51.53200149536133" y2="377.8779993057251" fill="rgb(0, 0, 0)" stroke="rgb(204, 204, 204)" stroke-width="1px"></line></g></g><g transform="translate(51, 0)" clip-path="url(#clip_0)"><clipPath id="clip_0"><rect width="1440" height="377"></rect></clipPath><g><g><g><line x1="0" y1="0" x2="0" y2="377.8779993057251" fill="rgb(0, 0, 0)" stroke="rgb(60, 60, 60)" stroke-width="1px" opacity="0.25"></line><line x1="160.02199983384872" y1="0" x2="160.02199983384872" y2="377.8779993057251" fill="rgb(0, 0, 0)" stroke="rgb(60, 60, 60)" stroke-width="1px" opacity="0.25"></line><line x1="320.04399966769745" y1="0" x2="320.04399966769745" y2="377.8779993057251" fill="rgb(0, 0, 0)" stroke="rgb(60, 60, 60)" stroke-width="1px" opacity="0.25"></line><line x1="480.06599950154623" y1="0" x2="480.06599950154623" y2="377.8779993057251" fill="rgb(0, 0, 0)" stroke="rgb(60, 60, 60)" stroke-width="1px" opacity="0.25"></line><line x1="640.0879993353949" y1="0" x2="640.0879993353949" y2="377.8779993057251" fill="rgb(0, 0, 0)" stroke="rgb(60, 60, 60)" stroke-width="1px" opacity="0.25"></line><line x1="800.1099991692438" y1="0" x2="800.1099991692438" y2="377.8779993057251" fill="rgb(0, 0, 0)" stroke="rgb(60, 60, 60)" stroke-width="1px" opacity="0.25"></line><line x1="960.1319990030925" y1="0" x2="960.1319990030925" y2="377.8779993057251" fill="rgb(0, 0, 0)" stroke="rgb(60, 60, 60)" stroke-width="1px" opacity="0.25"></line><line x1="1120.1539988369411" y1="0" x2="1120.1539988369411" y2="377.8779993057251" fill="rgb(0, 0, 0)" stroke="rgb(60, 60, 60)" stroke-width="1px" opacity="0.25"></line><line x1="1280.1759986707898" y1="0" x2="1280.1759986707898" y2="377.8779993057251" fill="rgb(0, 0, 0)" stroke="rgb(60, 60, 60)" stroke-width="1px" opacity="0.25"></line><line x1="1440.1979985046387" y1="0" x2="1440.1979985046387" y2="377.8779993057251" fill="rgb(0, 0, 0)" stroke="rgb(60, 60, 60)" stroke-width="1px" opacity="0.25"></line></g><g><line x1="0" y1="377.8779993057251" x2="1440.1979985046387" y2="377.8779993057251" fill="rgb(0, 0, 0)" stroke="rgb(60, 60, 60)" stroke-width="1px" opacity="0.25"></line><line x1="0" y1="343.52545391429555" x2="1440.1979985046387" y2="343.52545391429555" fill="rgb(0, 0, 0)" stroke="rgb(60, 60, 60)" stroke-width="1px" opacity="0.25"></line><line x1="0" y1="309.17290852286595" x2="1440.1979985046387" y2="309.17290852286595" fill="rgb(0, 0, 0)" stroke="rgb(60, 60, 60)" stroke-width="1px" opacity="0.25"></line><line x1="0" y1="274.82036313143647" x2="1440.1979985046387" y2="274.82036313143647" fill="rgb(0, 0, 0)" stroke="rgb(60, 60, 60)" stroke-width="1px" opacity="0.25"></line><line x1="0" y1="240.46781774000686" x2="1440.1979985046387" y2="240.46781774000686" fill="rgb(0, 0, 0)" stroke="rgb(60, 60, 60)" stroke-width="1px" opacity="0.25"></line><line x1="0" y1="206.11527234857732" x2="1440.1979985046387" y2="206.11527234857732" fill="rgb(0, 0, 0)" stroke="rgb(60, 60, 60)" stroke-width="1px" opacity="0.25"></line><line x1="0" y1="171.76272695714778" x2="1440.1979985046387" y2="171.76272695714778" fill="rgb(0, 0, 0)" stroke="rgb(60, 60, 60)" stroke-width="1px" opacity="0.25"></line><line x1="0" y1="137.41018156571823" x2="1440.1979985046387" y2="137.41018156571823" fill="rgb(0, 0, 0)" stroke="rgb(60, 60, 60)" stroke-width="1px" opacity="0.25"></line><line x1="0" y1="103.0576361742887" x2="1440.1979985046387" y2="103.0576361742887" fill="rgb(0, 0, 0)" stroke="rgb(60, 60, 60)" stroke-width="1px" opacity="0.25"></line><line x1="0" y1="68.70509078285913" x2="1440.1979985046387" y2="68.70509078285913" fill="rgb(0, 0, 0)" stroke="rgb(60, 60, 60)" stroke-width="1px" opacity="0.25"></line><line x1="0" y1="34.352545391429565" x2="1440.1979985046387" y2="34.352545391429565" fill="rgb(0, 0, 0)" stroke="rgb(60, 60, 60)" stroke-width="1px" opacity="0.25"></line><line x1="0" y1="0" x2="1440.1979985046387" y2="0" fill="rgb(0, 0, 0)" stroke="rgb(60, 60, 60)" stroke-width="1px" opacity="0.25"></line></g></g></g><g><g><line x1="0" y1="583.9932716543024" x2="1440.1979985046387" y2="583.9932716543024" fill="rgb(0, 0, 0)" stroke="rgb(153, 153, 153)" stroke-width="1.5px"></line></g></g><g><g><line x1="160.02199983384872" y1="0" x2="160.02199983384872" y2="377.8779993057251" fill="rgb(0, 0, 0)" stroke="rgb(153, 153, 153)" stroke-width="1.5px"></line></g></g><g><g><g><g><g><path style="fill: none;" stroke="rgb(0, 119, 187)" stroke-width="2px" d="M192.0263998006185,419.6412010020309L224.03079976738823,347.5275356051747L256.035199734158,269.6209695241823L288.03959970092774,221.74011226166627L320.04399966769745,189.6080150906179L352.0483996344672,160.75838759798177L384.052799601237,157.3767840959057L416.0571995680067,148.5579752308315L448.06159953477646,139.5072772228776L480.06599950154623,141.30743232389653L512.070399468316,135.6420793976504L544.0747994350858,128.38797020385337L576.0791994018555,120.25110362723117L608.0835993686252,114.86661960673352L640.0879993353949,109.62751282928346L672.0923993021647,106.00745315934375L704.0967992689344,101.9279673649426L736.1011992357041,96.74889816074683L768.105599202474,93.8344649838911L800.1099991692438,92.05230875082006L832.1143991360134,89.78683315435292L864.1187991027832,87.7848046134268L896.1231990695529,86.46544399557547L928.1275990363227,85.41077530246379L960.1319990030925,84.94414079236958L992.1363989698622,83.95637181695452L1024.140798936632,83.29370047903569L1056.1451989034017,83.1284564095152L1088.1495988701715,82.44186987120476L1120.1539988369411,82.3606909417003L1152.158398803711,82.06213073494101L1184.1627987704805,82.02555473466757L1216.1671987372504,81.82139166836903L1248.1715987040202,81.68636269597528L1280.1759986707898,81.79216571818718L1312.1803986375596,81.59789925835904" fill="none"></path></g><g><path style="fill: none;" stroke="rgb(255, 112, 67)" stroke-width="2px" d="M160.02199983384872,457.714299709947L192.0263998006185,333.60388361817803L224.03079976738823,262.4989869166341L256.035199734158,220.40822437699268L288.03959970092774,192.82648581658538L320.04399966769745,174.1189442353719L352.0483996344672,158.30818701710524L384.052799601237,146.9083969885508L416.0571995680067,138.00295245373275L448.06159953477646,130.4047376689327L480.06599950154623,124.12984566346697L512.070399468316,118.04979202148905L544.0747994350858,108.95890793970021L576.0791994018555,100.93270777085336L608.0835993686252,94.35961947070732L640.0879993353949,88.7704105218919L672.0923993021647,83.71450187733691L704.0967992689344,79.65209402435212L736.1011992357041,73.41094939238789L768.105599202474,67.89573440944508L800.1099991692438,63.504020561117514L832.1143991360134,58.892843159230964L864.1187991027832,55.03468041321902L896.1231990695529,52.06967073779063L928.1275990363227,49.06813935856249L960.1319990030925,47.26971584334246L992.1363989698622,45.7033084765347L1024.140798936632,44.222185191009046L1056.1451989034017,43.11563375834083L1088.1495988701715,42.206420448453414L1120.1539988369411,41.42755133883108L1152.158398803711,40.90666547061745L1184.1627987704805,40.29088046708065L1216.1671987372504,40.03238784953055L1248.1715987040202,39.97012097621467L1280.1759986707898,39.84502651843457L1312.1803986375596,39.59740053729428" fill="none"></path></g></g></g></g><g opacity="0.2"><g><g><g><path style="fill: none;" stroke="rgb(0, 119, 187)" stroke-width="2px" d="M160.02199983384872,553.2168064061644L192.0263998006185,339.4958377595508L224.03079976738823,278.2984168241928L256.035199734158,178.00284781293516L288.03959970092774,159.2268650197255L320.04399966769745,145.15775714807629L352.0483996344672,119.50295868947205L384.052799601237,152.4463737264852L416.0571995680067,135.5519451202809L448.06159953477646,126.06804548561468L480.06599950154623,143.99133770115003L512.070399468316,127.17488060872397L544.0747994350858,117.53049233829248L576.0791994018555,108.06174473098868L608.0835993686252,106.7962228348274L640.0879993353949,101.77254768711732L672.0923993021647,100.57889554236408L704.0967992689344,95.80977445434196L736.1011992357041,88.98108333351924L768.105599202474,89.46308160934417L800.1099991692438,89.37917213889682L832.1143991360134,86.38869430609175L864.1187991027832,84.78180132859856L896.1231990695529,84.48641869788271L928.1275990363227,83.82877975893007L960.1319990030925,84.24419101721114L992.1363989698622,82.47472088126214L1024.140798936632,82.29969448951401L1056.1451989034017,82.88059045744744L1088.1495988701715,81.41199044320497L1120.1539988369411,82.23892257436327L1152.158398803711,81.61429048420541L1184.1627987704805,81.9706907386238L1216.1671987372504,81.51514708354507L1248.1715987040202,81.48381924318774L1280.1759986707898,81.9508702487768L1312.1803986375596,81.30649957162258" fill="none"></path></g><g><path style="fill: none;" stroke="rgb(255, 112, 67)" stroke-width="2px" d="M160.02199983384872,457.714299709947L192.0263998006185,259.1376339631166L224.03079976738823,194.23828608315185L256.035199734158,170.9094876303744L288.03959970092774,156.81576795211762L320.04399966769745,148.23967951358458L352.0483996344672,135.69855122286822L384.052799601237,130.2873936889342L416.0571995680067,124.86915155842262L448.06159953477646,119.12227423984855L480.06599950154623,114.77442046392594L512.070399468316,108.96279894194672L544.0747994350858,95.35226513084868L576.0791994018555,88.90913167926055L608.0835993686252,84.50771343904066L640.0879993353949,80.39053904185398L672.0923993021647,76.13277840159958L704.0967992689344,73.5595136897889L736.1011992357041,64.0501832200091L768.105599202474,59.623416047526234L800.1099991692438,56.91669064065068L832.1143991360134,51.976228789157766L864.1187991027832,49.247512466894115L896.1231990695529,47.622191348014255L928.1275990363227,44.56586362332077L960.1319990030925,44.57208823996693L992.1363989698622,43.35370143433028L1024.140798936632,42.000502536593736L1056.1451989034017,41.45580762862878L1088.1495988701715,40.84260098613072L1120.1539988369411,40.259247932679045L1152.158398803711,40.12533677193582L1184.1627987704805,39.367203035287815L1216.1671987372504,39.644648941720604L1248.1715987040202,39.87672066891687L1280.1759986707898,39.657384834990076L1312.1803986375596,39.22596156941522" fill="none"></path></g></g></g></g></g></g><g transform="translate(51, 377)" clip-path="url(#clip_1)"><clipPath id="clip_1"><rect width="1440" height="22"></rect></clipPath><g><g><line x1="0" y1="0" x2="0" y2="5" style="visibility: inherit;" fill="rgb(0, 0, 0)" stroke="rgb(204, 204, 204)" stroke-width="1px"></line><line x1="160.02199983384872" y1="0" x2="160.02199983384872" y2="5" style="visibility: inherit;" fill="rgb(0, 0, 0)" stroke="rgb(204, 204, 204)" stroke-width="1px"></line><line x1="320.04399966769745" y1="0" x2="320.04399966769745" y2="5" style="visibility: inherit;" fill="rgb(0, 0, 0)" stroke="rgb(204, 204, 204)" stroke-width="1px"></line><line x1="480.06599950154623" y1="0" x2="480.06599950154623" y2="5" style="visibility: inherit;" fill="rgb(0, 0, 0)" stroke="rgb(204, 204, 204)" stroke-width="1px"></line><line x1="640.0879993353949" y1="0" x2="640.0879993353949" y2="5" style="visibility: inherit;" fill="rgb(0, 0, 0)" stroke="rgb(204, 204, 204)" stroke-width="1px"></line><line x1="800.1099991692438" y1="0" x2="800.1099991692438" y2="5" style="visibility: inherit;" fill="rgb(0, 0, 0)" stroke="rgb(204, 204, 204)" stroke-width="1px"></line><line x1="960.1319990030925" y1="0" x2="960.1319990030925" y2="5" style="visibility: inherit;" fill="rgb(0, 0, 0)" stroke="rgb(204, 204, 204)" stroke-width="1px"></line><line x1="1120.1539988369411" y1="0" x2="1120.1539988369411" y2="5" style="visibility: inherit;" fill="rgb(0, 0, 0)" stroke="rgb(204, 204, 204)" stroke-width="1px"></line><line x1="1280.1759986707898" y1="0" x2="1280.1759986707898" y2="5" style="visibility: inherit;" fill="rgb(0, 0, 0)" stroke="rgb(204, 204, 204)" stroke-width="1px"></line><line x1="1440.1979985046387" y1="0" x2="1440.1979985046387" y2="5" style="visibility: inherit;" fill="rgb(0, 0, 0)" stroke="rgb(204, 204, 204)" stroke-width="1px"></line></g><g transform="translate(0, 8)"><text style="text-anchor: middle; visibility: hidden; font-family: Roboto, sans-serif; font-size: 12px; font-weight: 200;" x="0" y="0" dx="0em" dy="0.95em" fill="rgb(50, 49, 63)" stroke="none" stroke-width="1px">-5</text><text style="text-anchor: middle; visibility: inherit; font-family: Roboto, sans-serif; font-size: 12px; font-weight: 200;" x="160.02199983384872" y="0" dx="0em" dy="0.95em" fill="rgb(50, 49, 63)" stroke="none" stroke-width="1px">0</text><text style="text-anchor: middle; visibility: inherit; font-family: Roboto, sans-serif; font-size: 12px; font-weight: 200;" x="320.04399966769745" y="0" dx="0em" dy="0.95em" fill="rgb(50, 49, 63)" stroke="none" stroke-width="1px">5</text><text style="text-anchor: middle; visibility: inherit; font-family: Roboto, sans-serif; font-size: 12px; font-weight: 200;" x="480.06599950154623" y="0" dx="0em" dy="0.95em" fill="rgb(50, 49, 63)" stroke="none" stroke-width="1px">10</text><text style="text-anchor: middle; visibility: inherit; font-family: Roboto, sans-serif; font-size: 12px; font-weight: 200;" x="640.0879993353949" y="0" dx="0em" dy="0.95em" fill="rgb(50, 49, 63)" stroke="none" stroke-width="1px">15</text><text style="text-anchor: middle; visibility: inherit; font-family: Roboto, sans-serif; font-size: 12px; font-weight: 200;" x="800.1099991692438" y="0" dx="0em" dy="0.95em" fill="rgb(50, 49, 63)" stroke="none" stroke-width="1px">20</text><text style="text-anchor: middle; visibility: inherit; font-family: Roboto, sans-serif; font-size: 12px; font-weight: 200;" x="960.1319990030925" y="0" dx="0em" dy="0.95em" fill="rgb(50, 49, 63)" stroke="none" stroke-width="1px">25</text><text style="text-anchor: middle; visibility: inherit; font-family: Roboto, sans-serif; font-size: 12px; font-weight: 200;" x="1120.1539988369411" y="0" dx="0em" dy="0.95em" fill="rgb(50, 49, 63)" stroke="none" stroke-width="1px">30</text><text style="text-anchor: middle; visibility: inherit; font-family: Roboto, sans-serif; font-size: 12px; font-weight: 200;" x="1280.1759986707898" y="0" dx="0em" dy="0.95em" fill="rgb(50, 49, 63)" stroke="none" stroke-width="1px">35</text><text style="text-anchor: middle; visibility: hidden; font-family: Roboto, sans-serif; font-size: 12px; font-weight: 200;" x="1440.1979985046387" y="0" dx="0em" dy="0.95em" fill="rgb(50, 49, 63)" stroke="none" stroke-width="1px">40</text></g><line x1="0" y1="0" x2="1440.1979985046387" y2="0" fill="rgb(0, 0, 0)" stroke="rgb(204, 204, 204)" stroke-width="1px"></line></g></g></g></g></svg>