<svg viewBox="0 0 330 200" xmlns="http://www.w3.org/2000/svg"><g><g><g><g><g><line x1="51.53200149536133" y1="177.8779993057251" x2="46.53200149536133" y2="177.8779993057251" style="visibility: inherit;" fill="rgb(0, 0, 0)" stroke="rgb(204, 204, 204)" stroke-width="1px"></line><line x1="51.53200149536133" y1="161.70727209611374" x2="46.53200149536133" y2="161.70727209611374" style="visibility: inherit;" fill="rgb(0, 0, 0)" stroke="rgb(204, 204, 204)" stroke-width="1px"></line><line x1="51.53200149536133" y1="145.53654488650236" x2="46.53200149536133" y2="145.53654488650236" style="visibility: inherit;" fill="rgb(0, 0, 0)" stroke="rgb(204, 204, 204)" stroke-width="1px"></line><line x1="51.53200149536133" y1="129.36581767689097" x2="46.53200149536133" y2="129.36581767689097" style="visibility: inherit;" fill="rgb(0, 0, 0)" stroke="rgb(204, 204, 204)" stroke-width="1px"></line><line x1="51.53200149536133" y1="113.19509046727961" x2="46.53200149536133" y2="113.19509046727961" style="visibility: inherit;" fill="rgb(0, 0, 0)" stroke="rgb(204, 204, 204)" stroke-width="1px"></line><line x1="51.53200149536133" y1="97.02436325766823" x2="46.53200149536133" y2="97.02436325766823" style="visibility: inherit;" fill="rgb(0, 0, 0)" stroke="rgb(204, 204, 204)" stroke-width="1px"></line><line x1="51.53200149536133" y1="80.85363604805687" x2="46.53200149536133" y2="80.85363604805687" style="visibility: inherit;" fill="rgb(0, 0, 0)" stroke="rgb(204, 204, 204)" stroke-width="1px"></line><line x1="51.53200149536133" y1="64.68290883844548" x2="46.53200149536133" y2="64.68290883844548" style="visibility: inherit;" fill="rgb(0, 0, 0)" stroke="rgb(204, 204, 204)" stroke-width="1px"></line><line x1="51.53200149536133" y1="48.512181628834135" x2="46.53200149536133" y2="48.512181628834135" style="visibility: inherit;" fill="rgb(0, 0, 0)" stroke="rgb(204, 204, 204)" stroke-width="1px"></line><line x1="51.53200149536133" y1="32.34145441922276" x2="46.53200149536133" y2="32.34145441922276" style="visibility: inherit;" fill="rgb(0, 0, 0)" stroke="rgb(204, 204, 204)" stroke-width="1px"></line><line x1="51.53200149536133" y1="16.17072720961138" x2="46.53200149536133" y2="16.17072720961138" style="visibility: inherit;" fill="rgb(0, 0, 0)" stroke="rgb(204, 204, 204)" stroke-width="1px"></line><line x1="51.53200149536133" y1="0" x2="46.53200149536133" y2="0" style="visibility: inherit;" fill="rgb(0, 0, 0)" stroke="rgb(204, 204, 204)" stroke-width="1px"></line></g><g transform="translate(41.53200149536133, 0)"><text style="text-anchor: end; visibility: hidden; font-family: Roboto, sans-serif; font-size: 12px; font-weight: 200;" x="0" y="177.8779993057251" dx="0em" dy="0.3em" fill="rgb(50, 49, 63)" stroke="none" stroke-width="1px">0.3</text><text style="text-anchor: end; visibility: inherit; font-family: Roboto, sans-serif; font-size: 12px; font-weight: 200;" x="0" y="161.70727209611374" dx="0em" dy="0.3em" fill="rgb(50, 49, 63)" stroke="none" stroke-width="1px">0.35</text><text style="text-anchor: end; visibility: hidden; font-family: Roboto, sans-serif; font-size: 12px; font-weight: 200;" x="0" y="145.53654488650236" dx="0em" dy="0.3em" fill="rgb(50, 49, 63)" stroke="none" stroke-width="1px">0.4</text><text style="text-anchor: end; visibility: inherit; font-family: Roboto, sans-serif; font-size: 12px; font-weight: 200;" x="0" y="129.36581767689097" dx="0em" dy="0.3em" fill="rgb(50, 49, 63)" stroke="none" stroke-width="1px">0.45</text><text style="text-anchor: end; visibility: hidden; font-family: Roboto, sans-serif; font-size: 12px; font-weight: 200;" x="0" y="113.19509046727961" dx="0em" dy="0.3em" fill="rgb(50, 49, 63)" stroke="none" stroke-width="1px">0.5</text><text style="text-anchor: end; visibility: inherit; font-family: Roboto, sans-serif; font-size: 12px; font-weight: 200;" x="0" y="97.02436325766823" dx="0em" dy="0.3em" fill="rgb(50, 49, 63)" stroke="none" stroke-width="1px">0.55</text><text style="text-anchor: end; visibility: hidden; font-family: Roboto, sans-serif; font-size: 12px; font-weight: 200;" x="0" y="80.85363604805687" dx="0em" dy="0.3em" fill="rgb(50, 49, 63)" stroke="none" stroke-width="1px">0.6</text><text style="text-anchor: end; visibility: inherit; font-family: Roboto, sans-serif; font-size: 12px; font-weight: 200;" x="0" y="64.68290883844548" dx="0em" dy="0.3em" fill="rgb(50, 49, 63)" stroke="none" stroke-width="1px">0.65</text><text style="text-anchor: end; visibility: hidden; font-family: Roboto, sans-serif; font-size: 12px; font-weight: 200;" x="0" y="48.512181628834135" dx="0em" dy="0.3em" fill="rgb(50, 49, 63)" stroke="none" stroke-width="1px">0.7</text><text style="text-anchor: end; visibility: inherit; font-family: Roboto, sans-serif; font-size: 12px; font-weight: 200;" x="0" y="32.34145441922276" dx="0em" dy="0.3em" fill="rgb(50, 49, 63)" stroke="none" stroke-width="1px">0.75</text><text style="text-anchor: end; visibility: hidden; font-family: Roboto, sans-serif; font-size: 12px; font-weight: 200;" x="0" y="16.17072720961138" dx="0em" dy="0.3em" fill="rgb(50, 49, 63)" stroke="none" stroke-width="1px">0.8</text><text style="text-anchor: end; visibility: hidden; font-family: Roboto, sans-serif; font-size: 12px; font-weight: 200;" x="0" y="0" dx="0em" dy="0.3em" fill="rgb(50, 49, 63)" stroke="none" stroke-width="1px">0.85</text></g><line x1="51.53200149536133" y1="0" x2="51.53200149536133" y2="177.8779993057251" fill="rgb(0, 0, 0)" stroke="rgb(204, 204, 204)" stroke-width="1px"></line></g></g><g transform="translate(51, 0)" clip-path="url(#clip_0)"><clipPath id="clip_0"><rect width="278" height="177"></rect></clipPath><g><g><g><line x1="0" y1="0" x2="0" y2="177.8779993057251" fill="rgb(0, 0, 0)" stroke="rgb(60, 60, 60)" stroke-width="1px" opacity="0.25"></line><line x1="30.94088872273763" y1="0" x2="30.94088872273763" y2="177.8779993057251" fill="rgb(0, 0, 0)" stroke="rgb(60, 60, 60)" stroke-width="1px" opacity="0.25"></line><line x1="61.88177744547526" y1="0" x2="61.88177744547526" y2="177.8779993057251" fill="rgb(0, 0, 0)" stroke="rgb(60, 60, 60)" stroke-width="1px" opacity="0.25"></line><line x1="92.82266616821289" y1="0" x2="92.82266616821289" y2="177.8779993057251" fill="rgb(0, 0, 0)" stroke="rgb(60, 60, 60)" stroke-width="1px" opacity="0.25"></line><line x1="123.76355489095052" y1="0" x2="123.76355489095052" y2="177.8779993057251" fill="rgb(0, 0, 0)" stroke="rgb(60, 60, 60)" stroke-width="1px" opacity="0.25"></line><line x1="154.70444361368817" y1="0" x2="154.70444361368817" y2="177.8779993057251" fill="rgb(0, 0, 0)" stroke="rgb(60, 60, 60)" stroke-width="1px" opacity="0.25"></line><line x1="185.64533233642578" y1="0" x2="185.64533233642578" y2="177.8779993057251" fill="rgb(0, 0, 0)" stroke="rgb(60, 60, 60)" stroke-width="1px" opacity="0.25"></line><line x1="216.58622105916342" y1="0" x2="216.58622105916342" y2="177.8779993057251" fill="rgb(0, 0, 0)" stroke="rgb(60, 60, 60)" stroke-width="1px" opacity="0.25"></line><line x1="247.52710978190103" y1="0" x2="247.52710978190103" y2="177.8779993057251" fill="rgb(0, 0, 0)" stroke="rgb(60, 60, 60)" stroke-width="1px" opacity="0.25"></line><line x1="278.4679985046387" y1="0" x2="278.4679985046387" y2="177.8779993057251" fill="rgb(0, 0, 0)" stroke="rgb(60, 60, 60)" stroke-width="1px" opacity="0.25"></line></g><g><line x1="0" y1="177.8779993057251" x2="278.4679985046387" y2="177.8779993057251" fill="rgb(0, 0, 0)" stroke="rgb(60, 60, 60)" stroke-width="1px" opacity="0.25"></line><line x1="0" y1="161.70727209611374" x2="278.4679985046387" y2="161.70727209611374" fill="rgb(0, 0, 0)" stroke="rgb(60, 60, 60)" stroke-width="1px" opacity="0.25"></line><line x1="0" y1="145.53654488650236" x2="278.4679985046387" y2="145.53654488650236" fill="rgb(0, 0, 0)" stroke="rgb(60, 60, 60)" stroke-width="1px" opacity="0.25"></line><line x1="0" y1="129.36581767689097" x2="278.4679985046387" y2="129.36581767689097" fill="rgb(0, 0, 0)" stroke="rgb(60, 60, 60)" stroke-width="1px" opacity="0.25"></line><line x1="0" y1="113.19509046727961" x2="278.4679985046387" y2="113.19509046727961" fill="rgb(0, 0, 0)" stroke="rgb(60, 60, 60)" stroke-width="1px" opacity="0.25"></line><line x1="0" y1="97.02436325766823" x2="278.4679985046387" y2="97.02436325766823" fill="rgb(0, 0, 0)" stroke="rgb(60, 60, 60)" stroke-width="1px" opacity="0.25"></line><line x1="0" y1="80.85363604805687" x2="278.4679985046387" y2="80.85363604805687" fill="rgb(0, 0, 0)" stroke="rgb(60, 60, 60)" stroke-width="1px" opacity="0.25"></line><line x1="0" y1="64.68290883844548" x2="278.4679985046387" y2="64.68290883844548" fill="rgb(0, 0, 0)" stroke="rgb(60, 60, 60)" stroke-width="1px" opacity="0.25"></line><line x1="0" y1="48.512181628834135" x2="278.4679985046387" y2="48.512181628834135" fill="rgb(0, 0, 0)" stroke="rgb(60, 60, 60)" stroke-width="1px" opacity="0.25"></line><line x1="0" y1="32.34145441922276" x2="278.4679985046387" y2="32.34145441922276" fill="rgb(0, 0, 0)" stroke="rgb(60, 60, 60)" stroke-width="1px" opacity="0.25"></line><line x1="0" y1="16.17072720961138" x2="278.4679985046387" y2="16.17072720961138" fill="rgb(0, 0, 0)" stroke="rgb(60, 60, 60)" stroke-width="1px" opacity="0.25"></line><line x1="0" y1="0" x2="278.4679985046387" y2="0" fill="rgb(0, 0, 0)" stroke="rgb(60, 60, 60)" stroke-width="1px" opacity="0.25"></line></g></g></g><g><g><line x1="0" y1="274.90236256339335" x2="278.4679985046387" y2="274.90236256339335" fill="rgb(0, 0, 0)" stroke="rgb(153, 153, 153)" stroke-width="1.5px"></line></g></g><g><g><line x1="30.94088872273763" y1="0" x2="30.94088872273763" y2="177.8779993057251" fill="rgb(0, 0, 0)" stroke="rgb(153, 153, 153)" stroke-width="1.5px"></line></g></g><g><g><g><g><g><path style="fill: none;" stroke="rgb(0, 119, 187)" stroke-width="2px" d="M37.129066467285156,197.53713473035737L43.31724421183268,163.59116659523673L49.50542195638021,126.91831415945789L55.693599700927734,104.3794230079552L61.88177744547526,89.25392438463102L68.06995519002278,75.67357827150973L74.25813293457031,74.08176063063176L80.44631067911783,69.93049466632289L86.63448842366536,65.6700718395559L92.82266616821289,66.51745641446516L99.01084391276042,63.850612497293426L105.19902165730794,60.43589549204667L111.38719940185547,56.60563929844335L117.575377146403,54.07100842123034L123.76355489095052,51.60481077692689L129.95173263549805,49.900744986805975L136.13991038004556,47.980414158767715L142.32808812459308,45.5424779200853L148.51626586914062,44.170570734269226L154.70444361368817,43.331658742114776L160.89262135823566,42.26523448000925L167.0807991027832,41.322822293887825L173.26897684733072,40.701761455476095L179.45715459187826,40.2052986886419L185.64533233642578,39.98564045710933L191.8335100809733,39.520669303864324L198.02168782552084,39.20873092162768L204.20986557006833,39.13094580437437L210.39804331461588,38.80774985221708L216.58622105916342,38.76953660457481L222.77439880371094,38.62899576242941L228.96257654825845,38.61177839131175L235.150754292806,38.515672987366486L241.33893203735352,38.45211098189954L247.52710978190103,38.501915495383074L253.71528752644855,38.4104687076105" fill="none"></path></g><g><path style="fill: none;" stroke="rgb(255, 112, 67)" stroke-width="2px" d="M30.94088872273763,215.45923296835048L37.129066467285156,157.03690473551848L43.31724421183268,123.5657929233753L49.50542195638021,103.75246522618289L55.693599700927734,90.76895075454667L61.88177744547526,81.96277501923312L68.06995519002278,74.52019866744492L74.25813293457031,69.15399093238163L80.44631067911783,64.96194307648112L86.63448842366536,61.38524571199146L92.82266616821289,58.43147428882721L99.01084391276042,55.5694188648714L105.19902165730794,51.29007930194394L111.38719940185547,47.511916956729785L117.575377146403,44.41777599526066L123.76355489095052,41.78677522955432L129.95173263549805,39.40681419446282L136.13991038004556,37.49452244267928L142.32808812459308,34.55663687497976L148.51626586914062,31.96046718870725L154.70444361368817,29.8931616713206L160.89262135823566,27.72254837232369L167.0807991027832,25.906400643381037L173.26897684733072,24.510685650827014L179.45715459187826,23.097778846060923L185.64533233642578,22.251209378191767L191.8335100809733,21.51385655792322L198.02168782552084,20.816649397838535L204.20986557006833,20.29576393921553L210.39804331461588,19.867771188110535L216.58622105916342,19.501135186027327L222.77439880371094,19.25593928609481L228.96257654825845,18.966071644599822L235.150754292806,18.844391764507332L241.33893203735352,18.815080963484778L247.52710978190103,18.756195418639507L253.71528752644855,18.639630775600533" fill="none"></path></g></g></g></g><g opacity="0.2"><g><g><g><path style="fill: none;" stroke="rgb(0, 119, 187)" stroke-width="2px" d="M30.94088872273763,260.41499872083256L37.129066467285156,159.8104163360722L43.31724421183268,131.00303718552095L49.50542195638021,83.79103969498195L55.693599700927734,74.95264672055333L61.88177744547526,68.32991460906925L68.06995519002278,56.25346604420838L74.25813293457031,71.76087522878237L80.44631067911783,63.808183710868136L86.63448842366536,59.34384046852483L92.82266616821289,67.78084756110209L99.01084391276042,59.8648594683653L105.19902165730794,55.32496962766569L111.38719940185547,50.86775887866045L117.575377146403,50.27204146886061L123.76355489095052,47.907253664123694L129.95173263549805,47.34536740515705L136.13991038004556,45.100405488499455L142.32808812459308,41.88594495710987L148.51626586914062,42.112835353296134L154.70444361368817,42.073336761810516L160.89262135823566,40.66563317799558L167.0807991027832,39.90922262099024L173.26897684733072,39.77017755491618L179.45715459187826,39.46060806703554L185.64533233642578,39.6561540465524L191.8335100809733,38.82321376373063L198.02168782552084,38.74082382717158L204.20986557006833,39.014268200145416L210.39804331461588,38.322956102606604L216.58622105916342,38.71221674578327L222.77439880371094,38.41818452717416L228.96257654825845,38.58595233669065L235.150754292806,38.37151488833245L241.33893203735352,38.3567679764308L247.52710978190103,38.576622264324115L253.71528752644855,38.273298527366535" fill="none"></path></g><g><path style="fill: none;" stroke="rgb(255, 112, 67)" stroke-width="2px" d="M30.94088872273763,215.45923296835048L37.129066467285156,121.98350779581926L43.31724421183268,91.43352558371781L49.50542195638021,80.45199185428463L55.693599700927734,73.81767426037844L61.88177744547526,69.7806637540298L68.06995519002278,63.87719540316607L74.25813293457031,61.33000853906514L80.44631067911783,58.77948675240343L86.63448842366536,56.07426696834198L92.82266616821289,54.027607643491365L99.01084391276042,51.29191090816652L105.19902165730794,44.88504274370822L111.38719940185547,41.8520752522586L117.575377146403,39.78020159960751L123.76355489095052,37.84212966657654L129.95173263549805,35.837879761573824L136.13991038004556,34.62657034567269L142.32808812459308,30.150256080726876L148.51626586914062,28.066449959491322L154.70444361368817,26.792316771188226L160.89262135823566,24.46669984878355L167.0807991027832,23.182214906635764L173.26897684733072,22.41712969557063L179.45715459187826,20.97842868124868L185.64533233642578,20.981358786619985L191.8335100809733,20.407829214204213L198.02168782552084,19.77083972808876L204.20986557006833,19.51443623109016L210.39804331461588,19.22578229799815L216.58622105916342,18.951181304483L222.77439880371094,18.8881454849818L228.96257654825845,18.531270216961722L235.150754292806,18.66187195308423L241.33893203735352,18.77111476321062L247.52710978190103,18.667867102890007L253.71528752644855,18.464783812845617" fill="none"></path></g></g></g></g></g></g><g transform="translate(51, 177)" clip-path="url(#clip_1)"><clipPath id="clip_1"><rect width="278" height="22"></rect></clipPath><g><g><line x1="0" y1="0" x2="0" y2="5" style="visibility: inherit;" fill="rgb(0, 0, 0)" stroke="rgb(204, 204, 204)" stroke-width="1px"></line><line x1="30.94088872273763" y1="0" x2="30.94088872273763" y2="5" style="visibility: inherit;" fill="rgb(0, 0, 0)" stroke="rgb(204, 204, 204)" stroke-width="1px"></line><line x1="61.88177744547526" y1="0" x2="61.88177744547526" y2="5" style="visibility: inherit;" fill="rgb(0, 0, 0)" stroke="rgb(204, 204, 204)" stroke-width="1px"></line><line x1="92.82266616821289" y1="0" x2="92.82266616821289" y2="5" style="visibility: inherit;" fill="rgb(0, 0, 0)" stroke="rgb(204, 204, 204)" stroke-width="1px"></line><line x1="123.76355489095052" y1="0" x2="123.76355489095052" y2="5" style="visibility: inherit;" fill="rgb(0, 0, 0)" stroke="rgb(204, 204, 204)" stroke-width="1px"></line><line x1="154.70444361368817" y1="0" x2="154.70444361368817" y2="5" style="visibility: inherit;" fill="rgb(0, 0, 0)" stroke="rgb(204, 204, 204)" stroke-width="1px"></line><line x1="185.64533233642578" y1="0" x2="185.64533233642578" y2="5" style="visibility: inherit;" fill="rgb(0, 0, 0)" stroke="rgb(204, 204, 204)" stroke-width="1px"></line><line x1="216.58622105916342" y1="0" x2="216.58622105916342" y2="5" style="visibility: inherit;" fill="rgb(0, 0, 0)" stroke="rgb(204, 204, 204)" stroke-width="1px"></line><line x1="247.52710978190103" y1="0" x2="247.52710978190103" y2="5" style="visibility: inherit;" fill="rgb(0, 0, 0)" stroke="rgb(204, 204, 204)" stroke-width="1px"></line><line x1="278.4679985046387" y1="0" x2="278.4679985046387" y2="5" style="visibility: inherit;" fill="rgb(0, 0, 0)" stroke="rgb(204, 204, 204)" stroke-width="1px"></line></g><g transform="translate(0, 8)"><text style="text-anchor: middle; visibility: hidden; font-family: Roboto, sans-serif; font-size: 12px; font-weight: 200;" x="0" y="0" dx="0em" dy="0.95em" fill="rgb(50, 49, 63)" stroke="none" stroke-width="1px">-5</text><text style="text-anchor: middle; visibility: inherit; font-family: Roboto, sans-serif; font-size: 12px; font-weight: 200;" x="30.94088872273763" y="0" dx="0em" dy="0.95em" fill="rgb(50, 49, 63)" stroke="none" stroke-width="1px">0</text><text style="text-anchor: middle; visibility: inherit; font-family: Roboto, sans-serif; font-size: 12px; font-weight: 200;" x="61.88177744547526" y="0" dx="0em" dy="0.95em" fill="rgb(50, 49, 63)" stroke="none" stroke-width="1px">5</text><text style="text-anchor: middle; visibility: inherit; font-family: Roboto, sans-serif; font-size: 12px; font-weight: 200;" x="92.82266616821289" y="0" dx="0em" dy="0.95em" fill="rgb(50, 49, 63)" stroke="none" stroke-width="1px">10</text><text style="text-anchor: middle; visibility: inherit; font-family: Roboto, sans-serif; font-size: 12px; font-weight: 200;" x="123.76355489095052" y="0" dx="0em" dy="0.95em" fill="rgb(50, 49, 63)" stroke="none" stroke-width="1px">15</text><text style="text-anchor: middle; visibility: inherit; font-family: Roboto, sans-serif; font-size: 12px; font-weight: 200;" x="154.70444361368817" y="0" dx="0em" dy="0.95em" fill="rgb(50, 49, 63)" stroke="none" stroke-width="1px">20</text><text style="text-anchor: middle; visibility: inherit; font-family: Roboto, sans-serif; font-size: 12px; font-weight: 200;" x="185.64533233642578" y="0" dx="0em" dy="0.95em" fill="rgb(50, 49, 63)" stroke="none" stroke-width="1px">25</text><text style="text-anchor: middle; visibility: inherit; font-family: Roboto, sans-serif; font-size: 12px; font-weight: 200;" x="216.58622105916342" y="0" dx="0em" dy="0.95em" fill="rgb(50, 49, 63)" stroke="none" stroke-width="1px">30</text><text style="text-anchor: middle; visibility: inherit; font-family: Roboto, sans-serif; font-size: 12px; font-weight: 200;" x="247.52710978190103" y="0" dx="0em" dy="0.95em" fill="rgb(50, 49, 63)" stroke="none" stroke-width="1px">35</text><text style="text-anchor: middle; visibility: hidden; font-family: Roboto, sans-serif; font-size: 12px; font-weight: 200;" x="278.4679985046387" y="0" dx="0em" dy="0.95em" fill="rgb(50, 49, 63)" stroke="none" stroke-width="1px">40</text></g><line x1="0" y1="0" x2="278.4679985046387" y2="0" fill="rgb(0, 0, 0)" stroke="rgb(204, 204, 204)" stroke-width="1px"></line></g></g></g></g></svg>