<svg viewBox="0 0 330 200" xmlns="http://www.w3.org/2000/svg"><g><g><g><g><g><line x1="51.53200149536133" y1="177.8779993057251" x2="46.53200149536133" y2="177.8779993057251" style="visibility: inherit;" fill="rgb(0, 0, 0)" stroke="rgb(204, 204, 204)" stroke-width="1px"></line><line x1="51.53200149536133" y1="161.7072720961137" x2="46.53200149536133" y2="161.7072720961137" style="visibility: inherit;" fill="rgb(0, 0, 0)" stroke="rgb(204, 204, 204)" stroke-width="1px"></line><line x1="51.53200149536133" y1="145.53654488650236" x2="46.53200149536133" y2="145.53654488650236" style="visibility: inherit;" fill="rgb(0, 0, 0)" stroke="rgb(204, 204, 204)" stroke-width="1px"></line><line x1="51.53200149536133" y1="129.36581767689097" x2="46.53200149536133" y2="129.36581767689097" style="visibility: inherit;" fill="rgb(0, 0, 0)" stroke="rgb(204, 204, 204)" stroke-width="1px"></line><line x1="51.53200149536133" y1="113.19509046727963" x2="46.53200149536133" y2="113.19509046727963" style="visibility: inherit;" fill="rgb(0, 0, 0)" stroke="rgb(204, 204, 204)" stroke-width="1px"></line><line x1="51.53200149536133" y1="97.02436325766823" x2="46.53200149536133" y2="97.02436325766823" style="visibility: inherit;" fill="rgb(0, 0, 0)" stroke="rgb(204, 204, 204)" stroke-width="1px"></line><line x1="51.53200149536133" y1="80.85363604805687" x2="46.53200149536133" y2="80.85363604805687" style="visibility: inherit;" fill="rgb(0, 0, 0)" stroke="rgb(204, 204, 204)" stroke-width="1px"></line><line x1="51.53200149536133" y1="64.68290883844551" x2="46.53200149536133" y2="64.68290883844551" style="visibility: inherit;" fill="rgb(0, 0, 0)" stroke="rgb(204, 204, 204)" stroke-width="1px"></line><line x1="51.53200149536133" y1="48.512181628834114" x2="46.53200149536133" y2="48.512181628834114" style="visibility: inherit;" fill="rgb(0, 0, 0)" stroke="rgb(204, 204, 204)" stroke-width="1px"></line><line x1="51.53200149536133" y1="32.34145441922276" x2="46.53200149536133" y2="32.34145441922276" style="visibility: inherit;" fill="rgb(0, 0, 0)" stroke="rgb(204, 204, 204)" stroke-width="1px"></line><line x1="51.53200149536133" y1="16.17072720961138" x2="46.53200149536133" y2="16.17072720961138" style="visibility: inherit;" fill="rgb(0, 0, 0)" stroke="rgb(204, 204, 204)" stroke-width="1px"></line><line x1="51.53200149536133" y1="0" x2="46.53200149536133" y2="0" style="visibility: inherit;" fill="rgb(0, 0, 0)" stroke="rgb(204, 204, 204)" stroke-width="1px"></line></g><g transform="translate(41.53200149536133, 0)"><text style="text-anchor: end; visibility: hidden; font-family: Roboto, sans-serif; font-size: 12px; font-weight: 200;" x="0" y="177.8779993057251" dx="0em" dy="0.3em" fill="rgb(50, 49, 63)" stroke="none" stroke-width="1px">0.02</text><text style="text-anchor: end; visibility: inherit; font-family: Roboto, sans-serif; font-size: 12px; font-weight: 200;" x="0" y="161.7072720961137" dx="0em" dy="0.3em" fill="rgb(50, 49, 63)" stroke="none" stroke-width="1px">0.03</text><text style="text-anchor: end; visibility: hidden; font-family: Roboto, sans-serif; font-size: 12px; font-weight: 200;" x="0" y="145.53654488650236" dx="0em" dy="0.3em" fill="rgb(50, 49, 63)" stroke="none" stroke-width="1px">0.04</text><text style="text-anchor: end; visibility: inherit; font-family: Roboto, sans-serif; font-size: 12px; font-weight: 200;" x="0" y="129.36581767689097" dx="0em" dy="0.3em" fill="rgb(50, 49, 63)" stroke="none" stroke-width="1px">0.05</text><text style="text-anchor: end; visibility: hidden; font-family: Roboto, sans-serif; font-size: 12px; font-weight: 200;" x="0" y="113.19509046727963" dx="0em" dy="0.3em" fill="rgb(50, 49, 63)" stroke="none" stroke-width="1px">0.06</text><text style="text-anchor: end; visibility: inherit; font-family: Roboto, sans-serif; font-size: 12px; font-weight: 200;" x="0" y="97.02436325766823" dx="0em" dy="0.3em" fill="rgb(50, 49, 63)" stroke="none" stroke-width="1px">0.07</text><text style="text-anchor: end; visibility: hidden; font-family: Roboto, sans-serif; font-size: 12px; font-weight: 200;" x="0" y="80.85363604805687" dx="0em" dy="0.3em" fill="rgb(50, 49, 63)" stroke="none" stroke-width="1px">0.08</text><text style="text-anchor: end; visibility: inherit; font-family: Roboto, sans-serif; font-size: 12px; font-weight: 200;" x="0" y="64.68290883844551" dx="0em" dy="0.3em" fill="rgb(50, 49, 63)" stroke="none" stroke-width="1px">0.09</text><text style="text-anchor: end; visibility: hidden; font-family: Roboto, sans-serif; font-size: 12px; font-weight: 200;" x="0" y="48.512181628834114" dx="0em" dy="0.3em" fill="rgb(50, 49, 63)" stroke="none" stroke-width="1px">0.1</text><text style="text-anchor: end; visibility: inherit; font-family: Roboto, sans-serif; font-size: 12px; font-weight: 200;" x="0" y="32.34145441922276" dx="0em" dy="0.3em" fill="rgb(50, 49, 63)" stroke="none" stroke-width="1px">0.11</text><text style="text-anchor: end; visibility: hidden; font-family: Roboto, sans-serif; font-size: 12px; font-weight: 200;" x="0" y="16.17072720961138" dx="0em" dy="0.3em" fill="rgb(50, 49, 63)" stroke="none" stroke-width="1px">0.12</text><text style="text-anchor: end; visibility: hidden; font-family: Roboto, sans-serif; font-size: 12px; font-weight: 200;" x="0" y="0" dx="0em" dy="0.3em" fill="rgb(50, 49, 63)" stroke="none" stroke-width="1px">0.13</text></g><line x1="51.53200149536133" y1="0" x2="51.53200149536133" y2="177.8779993057251" fill="rgb(0, 0, 0)" stroke="rgb(204, 204, 204)" stroke-width="1px"></line></g></g><g transform="translate(51, 0)" clip-path="url(#clip_0)"><clipPath id="clip_0"><rect width="278" height="177"></rect></clipPath><g><g><g><line x1="0" y1="0" x2="0" y2="177.8779993057251" fill="rgb(0, 0, 0)" stroke="rgb(60, 60, 60)" stroke-width="1px" opacity="0.25"></line><line x1="30.94088872273763" y1="0" x2="30.94088872273763" y2="177.8779993057251" fill="rgb(0, 0, 0)" stroke="rgb(60, 60, 60)" stroke-width="1px" opacity="0.25"></line><line x1="61.88177744547526" y1="0" x2="61.88177744547526" y2="177.8779993057251" fill="rgb(0, 0, 0)" stroke="rgb(60, 60, 60)" stroke-width="1px" opacity="0.25"></line><line x1="92.82266616821289" y1="0" x2="92.82266616821289" y2="177.8779993057251" fill="rgb(0, 0, 0)" stroke="rgb(60, 60, 60)" stroke-width="1px" opacity="0.25"></line><line x1="123.76355489095052" y1="0" x2="123.76355489095052" y2="177.8779993057251" fill="rgb(0, 0, 0)" stroke="rgb(60, 60, 60)" stroke-width="1px" opacity="0.25"></line><line x1="154.70444361368817" y1="0" x2="154.70444361368817" y2="177.8779993057251" fill="rgb(0, 0, 0)" stroke="rgb(60, 60, 60)" stroke-width="1px" opacity="0.25"></line><line x1="185.64533233642578" y1="0" x2="185.64533233642578" y2="177.8779993057251" fill="rgb(0, 0, 0)" stroke="rgb(60, 60, 60)" stroke-width="1px" opacity="0.25"></line><line x1="216.58622105916342" y1="0" x2="216.58622105916342" y2="177.8779993057251" fill="rgb(0, 0, 0)" stroke="rgb(60, 60, 60)" stroke-width="1px" opacity="0.25"></line><line x1="247.52710978190103" y1="0" x2="247.52710978190103" y2="177.8779993057251" fill="rgb(0, 0, 0)" stroke="rgb(60, 60, 60)" stroke-width="1px" opacity="0.25"></line><line x1="278.4679985046387" y1="0" x2="278.4679985046387" y2="177.8779993057251" fill="rgb(0, 0, 0)" stroke="rgb(60, 60, 60)" stroke-width="1px" opacity="0.25"></line></g><g><line x1="0" y1="177.8779993057251" x2="278.4679985046387" y2="177.8779993057251" fill="rgb(0, 0, 0)" stroke="rgb(60, 60, 60)" stroke-width="1px" opacity="0.25"></line><line x1="0" y1="161.7072720961137" x2="278.4679985046387" y2="161.7072720961137" fill="rgb(0, 0, 0)" stroke="rgb(60, 60, 60)" stroke-width="1px" opacity="0.25"></line><line x1="0" y1="145.53654488650236" x2="278.4679985046387" y2="145.53654488650236" fill="rgb(0, 0, 0)" stroke="rgb(60, 60, 60)" stroke-width="1px" opacity="0.25"></line><line x1="0" y1="129.36581767689097" x2="278.4679985046387" y2="129.36581767689097" fill="rgb(0, 0, 0)" stroke="rgb(60, 60, 60)" stroke-width="1px" opacity="0.25"></line><line x1="0" y1="113.19509046727963" x2="278.4679985046387" y2="113.19509046727963" fill="rgb(0, 0, 0)" stroke="rgb(60, 60, 60)" stroke-width="1px" opacity="0.25"></line><line x1="0" y1="97.02436325766823" x2="278.4679985046387" y2="97.02436325766823" fill="rgb(0, 0, 0)" stroke="rgb(60, 60, 60)" stroke-width="1px" opacity="0.25"></line><line x1="0" y1="80.85363604805687" x2="278.4679985046387" y2="80.85363604805687" fill="rgb(0, 0, 0)" stroke="rgb(60, 60, 60)" stroke-width="1px" opacity="0.25"></line><line x1="0" y1="64.68290883844551" x2="278.4679985046387" y2="64.68290883844551" fill="rgb(0, 0, 0)" stroke="rgb(60, 60, 60)" stroke-width="1px" opacity="0.25"></line><line x1="0" y1="48.512181628834114" x2="278.4679985046387" y2="48.512181628834114" fill="rgb(0, 0, 0)" stroke="rgb(60, 60, 60)" stroke-width="1px" opacity="0.25"></line><line x1="0" y1="32.34145441922276" x2="278.4679985046387" y2="32.34145441922276" fill="rgb(0, 0, 0)" stroke="rgb(60, 60, 60)" stroke-width="1px" opacity="0.25"></line><line x1="0" y1="16.17072720961138" x2="278.4679985046387" y2="16.17072720961138" fill="rgb(0, 0, 0)" stroke="rgb(60, 60, 60)" stroke-width="1px" opacity="0.25"></line><line x1="0" y1="0" x2="278.4679985046387" y2="0" fill="rgb(0, 0, 0)" stroke="rgb(60, 60, 60)" stroke-width="1px" opacity="0.25"></line></g></g></g><g><g><line x1="0" y1="210.21945372494784" x2="278.4679985046387" y2="210.21945372494784" fill="rgb(0, 0, 0)" stroke="rgb(153, 153, 153)" stroke-width="1.5px"></line></g></g><g><g><line x1="30.94088872273763" y1="0" x2="30.94088872273763" y2="177.8779993057251" fill="rgb(0, 0, 0)" stroke="rgb(153, 153, 153)" stroke-width="1.5px"></line></g></g><g><g><g><g><g><path style="fill: none;" stroke="rgb(0, 119, 187)" stroke-width="2px" d="M43.31724421183268,-62.65287179325332L49.50542195638021,19.067839369600467L55.693599700927734,63.84165160997731L61.88177744547526,88.36401880465615L68.06995519002278,103.83722825476399L74.25813293457031,111.30502674816434L80.44631067911783,119.23521161890525L86.63448842366536,122.88123925298278L92.82266616821289,120.17106984722221L99.01084391276042,124.37423086486749L105.19902165730794,127.63800323601377L111.38719940185547,130.3903542867417L117.575377146403,132.87359062298617L123.76355489095052,133.7461732245645L129.95173263549805,134.16802083781272L136.13991038004556,133.18536216463806L142.32808812459308,133.1599490489277L148.51626586914062,133.3467928545814L154.70444361368817,133.25323107383295L160.89262135823566,132.73675669410648L167.0807991027832,131.80159277578753L173.26897684733072,131.02412815763182L179.45715459187826,130.46851701095318L185.64533233642578,129.89725335975538L191.8335100809733,129.44301914505698L198.02168782552084,128.75076756748192L204.20986557006833,128.30224355788263L210.39804331461588,128.00389325761955L216.58622105916342,127.76066416522627L222.77439880371094,127.74588751026143L228.96257654825845,127.51068050579777L235.150754292806,127.5035122498381L241.33893203735352,127.66475743346635L247.52710978190103,127.55718993076623L253.71528752644855,127.53977930758" fill="none"></path></g><g><path style="fill: none;" stroke="rgb(255, 112, 67)" stroke-width="2px" d="M30.94088872273763,-10.070542764783143L37.129066467285156,51.9541147823231L43.31724421183268,81.75621321296943L49.50542195638021,98.54818427154329L55.693599700927734,109.19177525450138L61.88177744547526,116.30455084026865L68.06995519002278,122.2308540970197L74.25813293457031,126.34902646265536L80.44631067911783,129.56052815769212L86.63448842366536,132.27781618150595L92.82266616821289,134.44518277836266L99.01084391276042,136.52217238919647L105.19902165730794,139.71337880977953L111.38719940185547,142.4573916040654L117.575377146403,144.63162273783297L123.76355489095052,146.51395391834146L129.95173263549805,148.22164743130676L136.13991038004556,149.54916316489235L142.32808812459308,151.68615265549536L148.51626586914062,153.40638278944593L154.70444361368817,154.84862243851202L160.89262135823566,156.38656823110392L167.0807991027832,157.63995980185575L173.26897684733072,158.6157316891245L179.45715459187826,159.6069162247539L185.64533233642578,160.18751434795567L191.8335100809733,160.69793215911008L198.02168782552084,161.21384782402808L204.20986557006833,161.54777762635698L210.39804331461588,161.86630593006356L216.58622105916342,162.10846236981425L222.77439880371094,162.22012144412673L228.96257654825845,162.43791008848723L235.150754292806,162.539795464275L241.33893203735352,162.53075234976845L247.52710978190103,162.56691060449208L253.71528752644855,162.70610977112005" fill="none"></path></g></g></g></g><g opacity="0.2"><g><g><g><path style="fill: none;" stroke="rgb(0, 119, 187)" stroke-width="2px" d="M37.129066467285156,-11.484704146620402L43.31724421183268,43.69632453660493L49.50542195638021,115.17139569711654L55.693599700927734,122.29834087101331L61.88177744547526,122.28728068708706L68.06995519002278,125.96416533976932L74.25813293457031,122.19314864240764L80.44631067911783,130.93069394413882L86.63448842366536,128.29516536694334L92.82266616821289,116.13039677562311L99.01084391276042,130.65609897468897L105.19902165730794,132.52300500966382L111.38719940185547,134.51348872059887L117.575377146403,136.5955261762567L123.76355489095052,135.0544317140764L129.95173263549805,134.80061374591287L136.13991038004556,131.71162365180678L142.32808812459308,133.12183324679455L148.51626586914062,133.62704148479799L154.70444361368817,133.1128935338607L160.89262135823566,131.96206211932622L167.0807991027832,130.39886536148938L173.26897684733072,129.8579404402078L179.45715459187826,129.63510423998144L185.64533233642578,129.0403603191372L191.8335100809733,128.76166898527023L198.02168782552084,127.71239126388858L204.20986557006833,127.62945795663771L210.39804331461588,127.5563679721186L216.58622105916342,127.39582060729383L222.77439880371094,127.72372253075419L228.96257654825845,127.15787002718132L235.150754292806,127.49275986641206L241.33893203735352,127.9066252019789L247.52710978190103,127.39583867948977L253.71528752644855,127.51366337307006" fill="none"></path></g><g><path style="fill: none;" stroke="rgb(255, 112, 67)" stroke-width="2px" d="M30.94088872273763,-10.070542764783143L37.129066467285156,89.16890931058686L43.31724421183268,110.3662277063899L49.50542195638021,118.29554223642606L55.693599700927734,123.08804764185149L61.88177744547526,126.14408007459566L68.06995519002278,130.7055625750258L74.25813293457031,132.35336130620692L80.44631067911783,134.29686935578204L86.63448842366536,136.3126722132541L92.82266616821289,137.6765748181324L99.01084391276042,139.6263539197049L105.19902165730794,144.48976859800385L111.38719940185547,146.5680349887718L117.575377146403,147.89041371140414L123.76355489095052,149.33612312331854L129.95173263549805,150.78246506209152L136.13991038004556,151.54009970916974L142.32808812459308,154.8913113425598L148.51626586914062,155.9865707545237L154.70444361368817,157.01190281626117L160.89262135823566,158.6934363132304L167.0807991027832,159.52002241195336L173.26897684733072,160.07937796107933L179.45715459187826,161.09368598328246L185.64533233642578,161.05840905677263L191.8335100809733,161.4635575698224L198.02168782552084,161.98772052935303L204.20986557006833,162.04867202225373L210.39804331461588,162.3440982095777L216.58622105916342,162.47169694913856L222.77439880371094,162.38761003337905L228.96257654825845,162.76459302902845L235.150754292806,162.6926235206587L241.33893203735352,162.51718767839728L247.52710978190103,162.62114798564517L253.71528752644855,162.91490851890836" fill="none"></path></g></g></g></g></g></g><g transform="translate(51, 177)" clip-path="url(#clip_1)"><clipPath id="clip_1"><rect width="278" height="22"></rect></clipPath><g><g><line x1="0" y1="0" x2="0" y2="5" style="visibility: inherit;" fill="rgb(0, 0, 0)" stroke="rgb(204, 204, 204)" stroke-width="1px"></line><line x1="30.94088872273763" y1="0" x2="30.94088872273763" y2="5" style="visibility: inherit;" fill="rgb(0, 0, 0)" stroke="rgb(204, 204, 204)" stroke-width="1px"></line><line x1="61.88177744547526" y1="0" x2="61.88177744547526" y2="5" style="visibility: inherit;" fill="rgb(0, 0, 0)" stroke="rgb(204, 204, 204)" stroke-width="1px"></line><line x1="92.82266616821289" y1="0" x2="92.82266616821289" y2="5" style="visibility: inherit;" fill="rgb(0, 0, 0)" stroke="rgb(204, 204, 204)" stroke-width="1px"></line><line x1="123.76355489095052" y1="0" x2="123.76355489095052" y2="5" style="visibility: inherit;" fill="rgb(0, 0, 0)" stroke="rgb(204, 204, 204)" stroke-width="1px"></line><line x1="154.70444361368817" y1="0" x2="154.70444361368817" y2="5" style="visibility: inherit;" fill="rgb(0, 0, 0)" stroke="rgb(204, 204, 204)" stroke-width="1px"></line><line x1="185.64533233642578" y1="0" x2="185.64533233642578" y2="5" style="visibility: inherit;" fill="rgb(0, 0, 0)" stroke="rgb(204, 204, 204)" stroke-width="1px"></line><line x1="216.58622105916342" y1="0" x2="216.58622105916342" y2="5" style="visibility: inherit;" fill="rgb(0, 0, 0)" stroke="rgb(204, 204, 204)" stroke-width="1px"></line><line x1="247.52710978190103" y1="0" x2="247.52710978190103" y2="5" style="visibility: inherit;" fill="rgb(0, 0, 0)" stroke="rgb(204, 204, 204)" stroke-width="1px"></line><line x1="278.4679985046387" y1="0" x2="278.4679985046387" y2="5" style="visibility: inherit;" fill="rgb(0, 0, 0)" stroke="rgb(204, 204, 204)" stroke-width="1px"></line></g><g transform="translate(0, 8)"><text style="text-anchor: middle; visibility: hidden; font-family: Roboto, sans-serif; font-size: 12px; font-weight: 200;" x="0" y="0" dx="0em" dy="0.95em" fill="rgb(50, 49, 63)" stroke="none" stroke-width="1px">-5</text><text style="text-anchor: middle; visibility: inherit; font-family: Roboto, sans-serif; font-size: 12px; font-weight: 200;" x="30.94088872273763" y="0" dx="0em" dy="0.95em" fill="rgb(50, 49, 63)" stroke="none" stroke-width="1px">0</text><text style="text-anchor: middle; visibility: inherit; font-family: Roboto, sans-serif; font-size: 12px; font-weight: 200;" x="61.88177744547526" y="0" dx="0em" dy="0.95em" fill="rgb(50, 49, 63)" stroke="none" stroke-width="1px">5</text><text style="text-anchor: middle; visibility: inherit; font-family: Roboto, sans-serif; font-size: 12px; font-weight: 200;" x="92.82266616821289" y="0" dx="0em" dy="0.95em" fill="rgb(50, 49, 63)" stroke="none" stroke-width="1px">10</text><text style="text-anchor: middle; visibility: inherit; font-family: Roboto, sans-serif; font-size: 12px; font-weight: 200;" x="123.76355489095052" y="0" dx="0em" dy="0.95em" fill="rgb(50, 49, 63)" stroke="none" stroke-width="1px">15</text><text style="text-anchor: middle; visibility: inherit; font-family: Roboto, sans-serif; font-size: 12px; font-weight: 200;" x="154.70444361368817" y="0" dx="0em" dy="0.95em" fill="rgb(50, 49, 63)" stroke="none" stroke-width="1px">20</text><text style="text-anchor: middle; visibility: inherit; font-family: Roboto, sans-serif; font-size: 12px; font-weight: 200;" x="185.64533233642578" y="0" dx="0em" dy="0.95em" fill="rgb(50, 49, 63)" stroke="none" stroke-width="1px">25</text><text style="text-anchor: middle; visibility: inherit; font-family: Roboto, sans-serif; font-size: 12px; font-weight: 200;" x="216.58622105916342" y="0" dx="0em" dy="0.95em" fill="rgb(50, 49, 63)" stroke="none" stroke-width="1px">30</text><text style="text-anchor: middle; visibility: inherit; font-family: Roboto, sans-serif; font-size: 12px; font-weight: 200;" x="247.52710978190103" y="0" dx="0em" dy="0.95em" fill="rgb(50, 49, 63)" stroke="none" stroke-width="1px">35</text><text style="text-anchor: middle; visibility: hidden; font-family: Roboto, sans-serif; font-size: 12px; font-weight: 200;" x="278.4679985046387" y="0" dx="0em" dy="0.95em" fill="rgb(50, 49, 63)" stroke="none" stroke-width="1px">40</text></g><line x1="0" y1="0" x2="278.4679985046387" y2="0" fill="rgb(0, 0, 0)" stroke="rgb(204, 204, 204)" stroke-width="1px"></line></g></g></g></g></svg>